Release Date: 4 June 2010 (USA)

Genre: Action | Comedy | Romance | Thriller

Plot: A vacationing woman meets her ideal man, leading to a swift marriage. Back at home, however, their idyllic life is upset when they discover their neighbors could be assassins who have been contracted to kill the couple.

Cast:
Ashton Kutcher ... Spencer Aimes
Katherine Heigl ... Jen Kornfeldt
Tom Selleck ... Mr. Kornfeldt
Catherine O'Hara ... Mrs. Kornfeldt
Katheryn Winnick ... Vivian
Kevin Sussman ... Mac Bailey
Lisa Ann Walter ... Olivia Brooks
Casey Wilson ... Kristen
Rob Riggle ... Henry
Martin Mull ... Holbrook
Alex Borstein ... Lily Baily
Usher Raymond ... Kevin the Manager (as Usher Raymond IV)
Letoya Luckett ... Amanda (as LeToya Luckett)
Michael Daniel Cassady ... Milo
Larry Joe Campbell ... Pete Denham
 
http://www.imagebam.com/image/f5946393381264

File Name

Killers 2010 816p BRRip H264.mp4

File Size
Format : MPEG-4
Format profile : Base Media
Codec ID : isom
File size : 3.74 GiB
Duration : 1h 40mn
Overall bit rate : 5 339 Kbps

Video
ID : 1
Format : AVC
Format/Info : Advanced Video Codec
Format profile : High@L4.1
Format settings, CABAC : Yes
Format settings, ReFrames : 3 frames
Codec ID : avc1
Codec ID/Info : Advanced Video Coding
Duration : 1h 40mn
Bit rate mode : Variable
Bit rate : 4 699 Kbps
Maximum bit rate : 16.8 Mbps
Width : 1 920 pixels
Height : 816 pixels
Display aspect ratio : 2.35:1
Frame rate mode : Constant
Frame rate : 23.976 fps
Resolution : 24 bits
Colorimetry : 4:2:0
Scan type : Progressive
Bits/(Pixel*Frame) : 0.125
Stream size : 3.29 GiB (88%)

Audio #1
ID : 2
Format : AAC
Format/Info : Advanced Audio Codec
Format version : Version 4
Format profile : LC
Format settings, SBR : No
Codec ID : 40
Duration : 1h 40mn
Bit rate mode : Variable
Bit rate : 192 Kbps
Maximum bit rate : 199 Kbps
Channel(s) : 2 channels
Channel positions : L R
Sampling rate : 48.0 KHz
Resolution : 16 bits
Stream size : 137 MiB (4%)

Audio #2
ID : 3
Format : AAC
Format/Info : Advanced Audio Codec
Format version : Version 4
Format profile : LC
Format settings, SBR : No
Codec ID : 40
Duration : 1h 40mn
Bit rate mode : Variable
Bit rate : 448 Kbps
Maximum bit rate : 459 Kbps
Channel(s) : 6 channels
Channel positions : Front: L C R, Rear: L R, LFE
Sampling rate : 48.0 KHz
Resolution : 16 bits
Stream size : 321 MiB (8%)

English SRT : ----

Language : English
